<mxfile host="app.diagrams.net" modified="2021-06-03T08:57:34.440Z" agent="5.0 (Macintosh; Intel Mac OS X 10_15_7) AppleWebKit/605.1.15 (KHTML, like Gecko) Version/14.1.1 Safari/605.1.15" etag="swcBKDJAoR8yvY9beGsc" version="14.7.3" type="github">
  <diagram name="Page-1" id="0783ab3e-0a74-02c8-0abd-f7b4e66b4bec">
    <mxGraphModel dx="946" dy="645" grid="1" gridSize="10" guides="1" tooltips="1" connect="1" arrows="1" fold="1" page="1" pageScale="1" pageWidth="850" pageHeight="1100" background="none" math="0" shadow="0">
      <root>
        <mxCell id="0" />
        <mxCell id="1" parent="0" />
        <mxCell id="TJGfaBOr8FEHoOE4iaZq-2" style="edgeStyle=orthogonalEdgeStyle;rounded=0;orthogonalLoop=1;jettySize=auto;html=1;exitX=0.5;exitY=1;exitDx=0;exitDy=0;entryX=0.5;entryY=0;entryDx=0;entryDy=0;strokeColor=#000000;" edge="1" parent="1" source="60571a20871a0731-4" target="TJGfaBOr8FEHoOE4iaZq-1">
          <mxGeometry relative="1" as="geometry" />
        </mxCell>
        <mxCell id="60571a20871a0731-4" value="" style="ellipse;whiteSpace=wrap;html=1;rounded=0;shadow=0;comic=0;labelBackgroundColor=none;strokeWidth=1;fillColor=#000000;fontFamily=Verdana;fontSize=12;align=center;" parent="1" vertex="1">
          <mxGeometry x="360" y="30" width="40" height="40" as="geometry" />
        </mxCell>
        <mxCell id="TJGfaBOr8FEHoOE4iaZq-5" style="edgeStyle=orthogonalEdgeStyle;rounded=0;orthogonalLoop=1;jettySize=auto;html=1;exitX=0.5;exitY=1;exitDx=0;exitDy=0;strokeColor=#000000;" edge="1" parent="1" source="TJGfaBOr8FEHoOE4iaZq-1" target="TJGfaBOr8FEHoOE4iaZq-4">
          <mxGeometry relative="1" as="geometry" />
        </mxCell>
        <mxCell id="TJGfaBOr8FEHoOE4iaZq-1" value="Yazarlar Aç" style="rounded=1;whiteSpace=wrap;html=1;" vertex="1" parent="1">
          <mxGeometry x="320" y="110" width="120" height="60" as="geometry" />
        </mxCell>
        <mxCell id="TJGfaBOr8FEHoOE4iaZq-7" value="Evet" style="edgeStyle=orthogonalEdgeStyle;rounded=0;orthogonalLoop=1;jettySize=auto;html=1;exitX=1;exitY=0.5;exitDx=0;exitDy=0;strokeColor=#000000;entryX=0.422;entryY=-0.1;entryDx=0;entryDy=0;entryPerimeter=0;" edge="1" parent="1" source="TJGfaBOr8FEHoOE4iaZq-4" target="TJGfaBOr8FEHoOE4iaZq-8">
          <mxGeometry x="-0.1429" y="20" relative="1" as="geometry">
            <mxPoint x="520" y="250" as="targetPoint" />
            <mxPoint as="offset" />
          </mxGeometry>
        </mxCell>
        <mxCell id="TJGfaBOr8FEHoOE4iaZq-10" value="Hayır" style="edgeStyle=orthogonalEdgeStyle;rounded=0;orthogonalLoop=1;jettySize=auto;html=1;exitX=0;exitY=0.5;exitDx=0;exitDy=0;strokeColor=#000000;entryX=1;entryY=0.5;entryDx=0;entryDy=0;" edge="1" parent="1" source="TJGfaBOr8FEHoOE4iaZq-4" target="TJGfaBOr8FEHoOE4iaZq-11">
          <mxGeometry y="-10" relative="1" as="geometry">
            <mxPoint x="280" y="250" as="targetPoint" />
            <mxPoint as="offset" />
          </mxGeometry>
        </mxCell>
        <mxCell id="TJGfaBOr8FEHoOE4iaZq-4" value="İşlem" style="rhombus;whiteSpace=wrap;html=1;" vertex="1" parent="1">
          <mxGeometry x="340" y="210" width="80" height="80" as="geometry" />
        </mxCell>
        <mxCell id="TJGfaBOr8FEHoOE4iaZq-13" style="edgeStyle=orthogonalEdgeStyle;rounded=0;orthogonalLoop=1;jettySize=auto;html=1;exitX=0.25;exitY=1;exitDx=0;exitDy=0;strokeColor=#000000;" edge="1" parent="1" source="TJGfaBOr8FEHoOE4iaZq-8">
          <mxGeometry relative="1" as="geometry">
            <mxPoint x="510" y="290" as="targetPoint" />
          </mxGeometry>
        </mxCell>
        <mxCell id="TJGfaBOr8FEHoOE4iaZq-16" style="edgeStyle=orthogonalEdgeStyle;rounded=0;orthogonalLoop=1;jettySize=auto;html=1;exitX=0.75;exitY=1;exitDx=0;exitDy=0;entryX=0.5;entryY=0;entryDx=0;entryDy=0;strokeColor=#000000;" edge="1" parent="1" source="TJGfaBOr8FEHoOE4iaZq-8" target="TJGfaBOr8FEHoOE4iaZq-15">
          <mxGeometry relative="1" as="geometry" />
        </mxCell>
        <mxCell id="TJGfaBOr8FEHoOE4iaZq-8" value="" style="whiteSpace=wrap;html=1;rounded=0;shadow=0;comic=0;labelBackgroundColor=none;strokeWidth=1;fontFamily=Verdana;fontSize=12;align=center;rotation=0;fillColor=#000000;" vertex="1" parent="1">
          <mxGeometry x="530" y="230" width="100" height="10" as="geometry" />
        </mxCell>
        <mxCell id="TJGfaBOr8FEHoOE4iaZq-11" value="" style="ellipse;whiteSpace=wrap;html=1;rounded=0;shadow=0;comic=0;labelBackgroundColor=none;strokeWidth=1;fillColor=#000000;fontFamily=Verdana;fontSize=12;align=center;" vertex="1" parent="1">
          <mxGeometry x="220" y="230" width="40" height="40" as="geometry" />
        </mxCell>
        <mxCell id="TJGfaBOr8FEHoOE4iaZq-18" style="edgeStyle=orthogonalEdgeStyle;rounded=0;orthogonalLoop=1;jettySize=auto;html=1;exitX=0.5;exitY=1;exitDx=0;exitDy=0;entryX=0.5;entryY=0;entryDx=0;entryDy=0;strokeColor=#000000;" edge="1" parent="1" source="TJGfaBOr8FEHoOE4iaZq-14" target="TJGfaBOr8FEHoOE4iaZq-17">
          <mxGeometry relative="1" as="geometry" />
        </mxCell>
        <mxCell id="TJGfaBOr8FEHoOE4iaZq-14" value="Yazar Bilgisi" style="rounded=1;whiteSpace=wrap;html=1;" vertex="1" parent="1">
          <mxGeometry x="460" y="290" width="100" height="40" as="geometry" />
        </mxCell>
        <mxCell id="TJGfaBOr8FEHoOE4iaZq-30" style="edgeStyle=orthogonalEdgeStyle;rounded=0;orthogonalLoop=1;jettySize=auto;html=1;exitX=0.5;exitY=1;exitDx=0;exitDy=0;entryX=0.5;entryY=0;entryDx=0;entryDy=0;strokeColor=#000000;" edge="1" parent="1" source="TJGfaBOr8FEHoOE4iaZq-15" target="TJGfaBOr8FEHoOE4iaZq-29">
          <mxGeometry relative="1" as="geometry" />
        </mxCell>
        <mxCell id="TJGfaBOr8FEHoOE4iaZq-15" value="Yazar İçeriği" style="rounded=1;whiteSpace=wrap;html=1;" vertex="1" parent="1">
          <mxGeometry x="590" y="290" width="100" height="40" as="geometry" />
        </mxCell>
        <mxCell id="TJGfaBOr8FEHoOE4iaZq-19" style="edgeStyle=orthogonalEdgeStyle;rounded=0;orthogonalLoop=1;jettySize=auto;html=1;exitX=0.25;exitY=1;exitDx=0;exitDy=0;strokeColor=#000000;entryX=0.5;entryY=0;entryDx=0;entryDy=0;" edge="1" parent="1" source="TJGfaBOr8FEHoOE4iaZq-17" target="TJGfaBOr8FEHoOE4iaZq-20">
          <mxGeometry relative="1" as="geometry">
            <mxPoint x="420" y="430" as="targetPoint" />
          </mxGeometry>
        </mxCell>
        <mxCell id="TJGfaBOr8FEHoOE4iaZq-22" style="edgeStyle=orthogonalEdgeStyle;rounded=0;orthogonalLoop=1;jettySize=auto;html=1;exitX=0.75;exitY=1;exitDx=0;exitDy=0;entryX=0.5;entryY=0;entryDx=0;entryDy=0;strokeColor=#000000;" edge="1" parent="1" source="TJGfaBOr8FEHoOE4iaZq-17" target="TJGfaBOr8FEHoOE4iaZq-21">
          <mxGeometry relative="1" as="geometry" />
        </mxCell>
        <mxCell id="TJGfaBOr8FEHoOE4iaZq-17" value="" style="whiteSpace=wrap;html=1;rounded=0;shadow=0;comic=0;labelBackgroundColor=none;strokeWidth=1;fontFamily=Verdana;fontSize=12;align=center;rotation=0;fillColor=#000000;" vertex="1" parent="1">
          <mxGeometry x="420" y="370" width="100" height="10" as="geometry" />
        </mxCell>
        <mxCell id="TJGfaBOr8FEHoOE4iaZq-24" style="edgeStyle=orthogonalEdgeStyle;rounded=0;orthogonalLoop=1;jettySize=auto;html=1;exitX=0.5;exitY=1;exitDx=0;exitDy=0;strokeColor=#000000;" edge="1" parent="1" source="TJGfaBOr8FEHoOE4iaZq-20">
          <mxGeometry relative="1" as="geometry">
            <mxPoint x="460" y="490" as="targetPoint" />
          </mxGeometry>
        </mxCell>
        <mxCell id="TJGfaBOr8FEHoOE4iaZq-20" value="Yazar Ekle" style="rounded=1;whiteSpace=wrap;html=1;" vertex="1" parent="1">
          <mxGeometry x="360" y="410" width="100" height="40" as="geometry" />
        </mxCell>
        <mxCell id="TJGfaBOr8FEHoOE4iaZq-23" style="edgeStyle=orthogonalEdgeStyle;rounded=0;orthogonalLoop=1;jettySize=auto;html=1;exitX=0.5;exitY=1;exitDx=0;exitDy=0;strokeColor=#000000;" edge="1" parent="1" source="TJGfaBOr8FEHoOE4iaZq-21">
          <mxGeometry relative="1" as="geometry">
            <mxPoint x="490" y="490" as="targetPoint" />
          </mxGeometry>
        </mxCell>
        <mxCell id="TJGfaBOr8FEHoOE4iaZq-21" value="Yazar Sil" style="rounded=1;whiteSpace=wrap;html=1;" vertex="1" parent="1">
          <mxGeometry x="480" y="410" width="100" height="40" as="geometry" />
        </mxCell>
        <mxCell id="TJGfaBOr8FEHoOE4iaZq-26" style="edgeStyle=orthogonalEdgeStyle;rounded=0;orthogonalLoop=1;jettySize=auto;html=1;strokeColor=#000000;entryX=1;entryY=0.5;entryDx=0;entryDy=0;" edge="1" parent="1" source="TJGfaBOr8FEHoOE4iaZq-25" target="TJGfaBOr8FEHoOE4iaZq-27">
          <mxGeometry relative="1" as="geometry">
            <mxPoint x="260" y="430" as="targetPoint" />
          </mxGeometry>
        </mxCell>
        <mxCell id="TJGfaBOr8FEHoOE4iaZq-25" value="" style="whiteSpace=wrap;html=1;rounded=0;shadow=0;comic=0;labelBackgroundColor=none;strokeWidth=1;fontFamily=Verdana;fontSize=12;align=center;rotation=0;fillColor=#000000;" vertex="1" parent="1">
          <mxGeometry x="425" y="490" width="100" height="10" as="geometry" />
        </mxCell>
        <mxCell id="TJGfaBOr8FEHoOE4iaZq-28" style="edgeStyle=orthogonalEdgeStyle;rounded=0;orthogonalLoop=1;jettySize=auto;html=1;strokeColor=#000000;" edge="1" parent="1" source="TJGfaBOr8FEHoOE4iaZq-27" target="TJGfaBOr8FEHoOE4iaZq-11">
          <mxGeometry relative="1" as="geometry" />
        </mxCell>
        <mxCell id="TJGfaBOr8FEHoOE4iaZq-27" value="Yazarlar Aç" style="rounded=1;whiteSpace=wrap;html=1;" vertex="1" parent="1">
          <mxGeometry x="110" y="400" width="120" height="60" as="geometry" />
        </mxCell>
        <mxCell id="TJGfaBOr8FEHoOE4iaZq-31" style="edgeStyle=orthogonalEdgeStyle;rounded=0;orthogonalLoop=1;jettySize=auto;html=1;exitX=0.25;exitY=1;exitDx=0;exitDy=0;strokeColor=#000000;" edge="1" parent="1" source="TJGfaBOr8FEHoOE4iaZq-29">
          <mxGeometry relative="1" as="geometry">
            <mxPoint x="630" y="410" as="targetPoint" />
          </mxGeometry>
        </mxCell>
        <mxCell id="TJGfaBOr8FEHoOE4iaZq-34" style="edgeStyle=orthogonalEdgeStyle;rounded=0;orthogonalLoop=1;jettySize=auto;html=1;exitX=0.75;exitY=1;exitDx=0;exitDy=0;entryX=0.5;entryY=0;entryDx=0;entryDy=0;strokeColor=#000000;" edge="1" parent="1" source="TJGfaBOr8FEHoOE4iaZq-29" target="TJGfaBOr8FEHoOE4iaZq-33">
          <mxGeometry relative="1" as="geometry" />
        </mxCell>
        <mxCell id="TJGfaBOr8FEHoOE4iaZq-36" style="edgeStyle=orthogonalEdgeStyle;rounded=0;orthogonalLoop=1;jettySize=auto;html=1;exitX=0.5;exitY=1;exitDx=0;exitDy=0;entryX=0.5;entryY=0;entryDx=0;entryDy=0;strokeColor=#000000;" edge="1" parent="1" source="TJGfaBOr8FEHoOE4iaZq-29" target="TJGfaBOr8FEHoOE4iaZq-35">
          <mxGeometry relative="1" as="geometry" />
        </mxCell>
        <mxCell id="TJGfaBOr8FEHoOE4iaZq-29" value="" style="whiteSpace=wrap;html=1;rounded=0;shadow=0;comic=0;labelBackgroundColor=none;strokeWidth=1;fontFamily=Verdana;fontSize=12;align=center;rotation=0;fillColor=#000000;" vertex="1" parent="1">
          <mxGeometry x="650" y="370" width="100" height="10" as="geometry" />
        </mxCell>
        <mxCell id="TJGfaBOr8FEHoOE4iaZq-38" style="edgeStyle=orthogonalEdgeStyle;rounded=0;orthogonalLoop=1;jettySize=auto;html=1;exitX=0.5;exitY=1;exitDx=0;exitDy=0;entryX=1;entryY=0.5;entryDx=0;entryDy=0;strokeColor=#000000;" edge="1" parent="1" source="TJGfaBOr8FEHoOE4iaZq-32" target="TJGfaBOr8FEHoOE4iaZq-25">
          <mxGeometry relative="1" as="geometry" />
        </mxCell>
        <mxCell id="TJGfaBOr8FEHoOE4iaZq-32" value="Yazar Güncelle" style="rounded=1;whiteSpace=wrap;html=1;" vertex="1" parent="1">
          <mxGeometry x="590" y="410" width="100" height="40" as="geometry" />
        </mxCell>
        <mxCell id="TJGfaBOr8FEHoOE4iaZq-39" style="edgeStyle=orthogonalEdgeStyle;rounded=0;orthogonalLoop=1;jettySize=auto;html=1;exitX=0.5;exitY=1;exitDx=0;exitDy=0;entryX=0.4;entryY=1;entryDx=0;entryDy=0;entryPerimeter=0;strokeColor=#000000;" edge="1" parent="1" source="TJGfaBOr8FEHoOE4iaZq-33" target="TJGfaBOr8FEHoOE4iaZq-25">
          <mxGeometry relative="1" as="geometry">
            <Array as="points">
              <mxPoint x="770" y="570" />
              <mxPoint x="465" y="570" />
            </Array>
          </mxGeometry>
        </mxCell>
        <mxCell id="TJGfaBOr8FEHoOE4iaZq-33" value="Yazara Kitap Ekle" style="rounded=1;whiteSpace=wrap;html=1;" vertex="1" parent="1">
          <mxGeometry x="720" y="410" width="100" height="40" as="geometry" />
        </mxCell>
        <mxCell id="TJGfaBOr8FEHoOE4iaZq-40" style="edgeStyle=orthogonalEdgeStyle;rounded=0;orthogonalLoop=1;jettySize=auto;html=1;exitX=0.5;exitY=1;exitDx=0;exitDy=0;entryX=0.64;entryY=1;entryDx=0;entryDy=0;entryPerimeter=0;strokeColor=#000000;" edge="1" parent="1" source="TJGfaBOr8FEHoOE4iaZq-35" target="TJGfaBOr8FEHoOE4iaZq-25">
          <mxGeometry relative="1" as="geometry" />
        </mxCell>
        <mxCell id="TJGfaBOr8FEHoOE4iaZq-35" value="Yazardan Kitap Çıkart" style="rounded=1;whiteSpace=wrap;html=1;" vertex="1" parent="1">
          <mxGeometry x="650" y="475" width="100" height="40" as="geometry" />
        </mxCell>
      </root>
    </mxGraphModel>
  </diagram>
</mxfile>
